<?xml version="1.0" standalone="no"?>
<!DOCTYPE svg PUBLIC "-//W3C//DTD SVG 20010904//EN"
 "http://www.w3.org/TR/2001/REC-SVG-20010904/DTD/svg10.dtd">
<svg version="1.0" xmlns="http://www.w3.org/2000/svg"
 width="2542.000000pt" height="2542.000000pt" viewBox="0 0 2542.000000 2542.000000"
 preserveAspectRatio="xMidYMid meet">
<metadata>
Created by potrace 1.14, written by Peter Selinger 2001-2017
</metadata>
<g transform="translate(0.000000,2542.000000) scale(0.100000,-0.100000)"
fill="#000000" stroke="none">
<path d="M2550 14460 l0 -1205 637 0 638 0 0 -545 0 -545 -637 0 -638 0 0
-1205 0 -1205 2129 0 c1171 0 2133 4 2138 8 4 5 8 251 8 548 l0 539 -1497 0
c-1420 0 -1498 1 -1499 18 -3 128 1 1285 5 1289 3 3 620 6 1370 6 l1364 0 0
547 -1 547 -1363 0 c-750 0 -1366 2 -1369 4 -3 4 -9 1203 -6 1292 1 16 79 17
1499 17 l1497 0 0 548 0 547 -2138 0 -2137 0 0 -1205z"/>
<path d="M7921 15655 c-4 -5 -7 -1335 -7 -2955 l1 -2945 638 0 637 0 0 1202
c0 1139 1 1203 18 1203 9 1 375 3 812 5 437 2 813 6 835 9 22 3 65 8 95 11 63
6 74 8 225 36 134 25 337 91 467 152 89 41 250 133 288 163 8 7 49 40 91 73
232 184 408 452 495 754 32 113 43 156 49 204 2 12 6 34 9 50 28 139 29 439 2
593 -85 484 -285 819 -644 1077 -192 138 -518 277 -742 318 -8 1 -33 6 -55 10
-67 12 -77 14 -160 24 -44 6 -118 13 -165 17 -142 12 -2880 11 -2889 -1z
m2619 -1099 c25 -3 79 -11 120 -17 381 -53 609 -221 664 -489 17 -83 15 -246
-4 -295 -6 -17 -11 -31 -11 -32 1 -8 -13 -45 -37 -93 -34 -71 -138 -175 -223
-222 -150 -84 -343 -127 -640 -144 -89 -5 -1092 -9 -1196 -5 l-23 1 0 656 0
656 653 -5 c358 -3 672 -8 697 -11z"/>
<path d="M13406 15660 c-2 -5 0 -2376 3 -2395 1 -11 1249 -15 1266 -3 7 4 10
233 9 657 l-1 651 1499 0 1498 0 0 548 0 547 -2136 0 c-1175 0 -2137 -2 -2138
-5z"/>
<path d="M18600 12710 l0 -2955 2137 0 2138 0 0 548 0 547 -1497 0 c-824 0
-1499 3 -1499 8 -1 4 -2 1087 -3 2407 l-1 2400 -638 0 -637 0 0 -2955z"/>
<path d="M14682 12711 l3 -546 1368 -1 c1257 -1 1367 0 1368 15 1 19 1 1002 0
1047 l-1 31 -1370 0 -1370 0 2 -546z"/>
<path d="M13407 12155 c-3 -9 -1 -2383 2 -2395 0 -3 285 -5 633 -5 l632 0 6
30 c8 46 4 2364 -4 2373 -12 11 -1265 9 -1269 -3z"/>
</g>
</svg>
